 <svg
            width="104"
            height="104"
            viewBox="0 0 104 104"
            fill="none"
            xmlns="http://www.w3.org/2000/svg"
          >
            <circle
              cx="52"
              cy="52"
              r="50.5"
              fill="white"
              stroke="black"
              stroke-width="3"
            />
            <path
              d="M52.8282 23.4936L51.5 20.9618L50.1717 23.4936L47.4697 28.6436L43.1694 24.7283L41.0553 22.8035L40.673 25.6369L39.8954 31.4004L34.5153 29.192L31.8704 28.1064L32.4803 30.8997L33.7208 36.5815L27.9098 36.3465L25.0531 36.2309L26.5815 38.6471L29.6906 43.562L24.1497 45.3286L21.4257 46.1971L23.6884 47.9449L28.2909 51.5L23.6884 55.0551L21.4257 56.8029L24.1497 57.6714L29.6906 59.438L26.5815 64.3529L25.0531 66.7691L27.9098 66.6535L33.7208 66.4185L32.4803 72.1003L31.8704 74.8936L34.5153 73.808L39.8954 71.5996L40.673 77.3631L41.0553 80.1965L43.1694 78.2717L47.4697 74.3564L50.1717 79.5064L51.5 82.0382L52.8282 79.5064L55.5302 74.3564L59.8305 78.2717L61.9446 80.1965L62.3269 77.3631L63.1045 71.5996L68.4846 73.808L71.1295 74.8936L70.5197 72.1003L69.2791 66.4185L75.0901 66.6535L77.9468 66.7691L76.4184 64.3529L73.3093 59.438L78.8502 57.6714L81.5742 56.8029L79.3115 55.0552L74.709 51.5L79.3115 47.9448L81.5742 46.1971L78.8502 45.3286L73.3093 43.562L76.4184 38.6471L77.9468 36.2309L75.0901 36.3465L69.2791 36.5815L70.5197 30.8997L71.1295 28.1064L68.4846 29.192L63.1045 31.4004L62.3269 25.6369L61.9446 22.8035L59.8305 24.7283L55.5302 28.6436L52.8282 23.4936Z"
              fill="#FF6969"
              stroke="black"
              stroke-width="3"
            />
            <path
              d="M50.4393 65.1083C51.0251 65.6941 51.9749 65.6941 52.5607 65.1083L62.1066 55.5623C62.6924 54.9766 62.6924 54.0268 62.1066 53.441C61.5208 52.8552 60.5711 52.8552 59.9853 53.441L51.5 61.9263L43.0147 53.441C42.4289 52.8552 41.4792 52.8552 40.8934 53.441C40.3076 54.0268 40.3076 54.9765 40.8934 55.5623L50.4393 65.1083ZM50 39.6905L50 64.0476L53 64.0476L53 39.6905L50 39.6905Z"
              fill="black"
            />
          </svg>