<svg width="55" height="43" viewBox="0 0 55 43" fill="none" xmlns="http://www.w3.org/2000/svg">
<path d="M11.3705 0.825695C6.01192 2.43429 1.53777 6.5398 0.679361 10.6453C-0.465188 16.0473 0.523286 20.8731 3.64478 25.1226C4.76332 26.6112 7.31254 29.0361 7.57267 28.796C7.62469 28.748 7.49463 28.0757 7.23451 27.3075C6.61021 25.3387 6.84432 22.6737 7.75475 20.9931C9.91379 17.0797 13.8677 15.279 19.7985 15.5191C22.5819 15.6151 22.842 15.6632 24.949 16.6235C26.1976 17.1517 27.8624 18.0881 28.6948 18.6883C29.5012 19.2885 30.3596 19.7687 30.5937 19.7687C31.14 19.7687 32.2325 18.5682 32.8308 17.2958C33.6892 15.5191 34.0013 13.8145 33.8453 11.8698C33.5071 7.38011 30.9059 4.18693 25.5213 1.666C22.6339 0.321508 21.3333 0.0814209 17.0412 0.0814209C14.1278 0.105431 13.5035 0.177456 11.3705 0.825695Z" fill="black"/>
<path d="M41.4995 15.0499C41.3694 15.3621 40.9532 16.5385 40.563 17.6909C39.8087 19.8997 38.1959 22.7568 36.5051 24.7975C35.9328 25.4938 35.5426 26.1661 35.6207 26.2861C35.8808 26.6702 38.1959 27.7266 39.6006 28.1108C41.7076 28.687 45.6355 28.4709 48.3148 27.6306C51.4103 26.6702 55 24.2453 55 23.0929C55 22.6848 54.8699 22.6608 53.7774 22.8288C53.0751 22.9489 51.6184 23.0209 50.4998 22.9969C47.0662 22.9008 45.0892 21.7484 43.6845 19.0594C43.2423 18.1711 42.6961 16.8026 42.514 15.9863C42.1758 14.4497 41.8637 14.1856 41.4995 15.0499Z" fill="black"/>
<path d="M45.7916 15.7943C44.543 16.8987 44.3089 17.619 44.8812 18.6754C45.2714 19.3957 46.7021 20.7642 47.0402 20.7642C47.2223 20.7642 47.3264 19.7078 47.3264 17.763C47.3264 16.1064 47.2483 14.7619 47.1703 14.7619C47.0923 14.7619 46.468 15.2181 45.7916 15.7943Z" fill="black"/>
<path d="M28.7539 36.3219C28.0516 37.2342 27.2712 39.2749 26.907 41.0516C26.6729 42.324 26.6989 42.5161 27.0891 42.8042C27.3492 42.9723 27.7134 43.0443 27.8955 42.9723C28.1036 42.9002 28.3897 42.8522 28.5718 42.8522C28.7539 42.8522 29.4823 42.0599 30.1846 41.0996C30.8869 40.1633 31.7974 38.9628 32.2136 38.4827C32.6038 38.0025 32.8639 37.4983 32.7858 37.3543C32.5517 37.0421 30.6268 35.9858 29.8464 35.7937C29.4302 35.6737 29.1701 35.7937 28.7539 36.3219Z" fill="black"/>
<path d="M8.43788 36.5959C7.26731 37.6763 6.38289 40.5574 6.74706 42.0939C6.87712 42.7182 7.0332 42.8382 7.63149 42.8382C8.25579 42.8382 8.54193 42.5741 9.47838 41.2536L10.5969 39.6691L9.99863 38.0605C9.24426 36.0677 9.14021 35.9477 8.43788 36.5959Z" fill="black"/>
<path d="M17.022 22.3827C13.7444 23.391 11.7935 25.3358 10.883 28.5529C9.92057 31.8422 11.3252 37.4602 14.0826 41.4217C15.071 42.8142 15.097 42.8382 16.3196 42.8382C17.7243 42.8382 17.7243 42.8622 17.126 40.5093C16.5537 38.2765 16.7618 36.2838 17.6983 34.6512C18.3226 33.5708 18.6868 33.2347 19.9614 32.6585C22.5886 31.434 26.6726 31.554 29.638 32.9225C31.8751 33.9789 33.0717 34.8673 36.9995 38.3726C41.8639 42.6941 42.072 42.8382 43.9189 42.8382C46.0779 42.8382 46.0519 42.4781 43.7628 40.2212C42.6963 39.1889 41.2656 37.6763 40.5633 36.836C32.4994 27.4725 29.638 24.7836 25.9182 23.0069C24.0714 22.1186 23.8372 22.0706 21.21 22.0225C19.103 21.9745 18.1145 22.0466 17.022 22.3827Z" fill="black"/>
</svg>
